<svg width="212" height="32" viewBox="0 0 212 32" fill="none" xmlns="http://www.w3.org/2000/svg">
<path d="M160.957 8.77938C160.957 9.61082 160.394 10.0263 159.27 10.0258H143.702C142.578 10.0258 142.016 9.54839 142.016 8.59358C142.016 7.70046 142.578 7.25391 143.702 7.25391H159.53C160.478 7.25391 160.952 7.7624 160.952 8.77938" fill="white"/>
<path d="M160.957 25.0127C160.957 25.8427 160.394 26.2582 159.27 26.2591H143.702C142.578 26.2591 142.016 25.7817 142.016 24.8269C142.016 23.9329 142.578 23.4863 143.702 23.4873H159.53C160.478 23.4873 160.952 23.9958 160.952 25.0127" fill="white"/>
<path d="M112.872 7.21338C113.696 7.21338 114.108 7.77924 114.108 8.91093V24.5873C114.108 25.7194 113.634 26.285 112.687 26.2841C111.799 26.2841 111.355 25.7185 111.355 24.5873V8.6456C111.355 7.69126 111.861 7.21387 112.872 7.21338Z" fill="white"/>
<path d="M160.957 16.9706C160.957 17.8005 160.394 18.2155 159.27 18.2155H143.702C142.578 18.2155 142.016 17.7386 142.016 16.7847C142.016 15.8902 142.578 15.4439 143.702 15.4458H159.53C160.478 15.4458 160.952 15.954 160.952 16.9706" fill="white"/>
<path d="M137.574 8.53933C137.574 8.68972 137.518 8.98541 137.404 9.42715C136.006 10.8249 131.393 15.5289 123.562 23.5389H136.166C137.104 23.6542 137.573 24.0638 137.574 24.768C137.574 25.7758 137.017 26.2801 135.902 26.2805H120.483C119.368 26.2805 118.81 25.8383 118.809 24.9539C118.809 24.8656 118.867 24.5924 118.98 24.1442C120.368 22.7463 124.981 18.0428 132.82 10.0337H120.483C119.368 10.0337 118.81 9.59199 118.809 8.70851C118.809 7.76189 119.279 7.28857 120.219 7.28857H136.166C137.104 7.41294 137.573 7.82865 137.574 8.53572" fill="white"/>
<path d="M166.314 7.29443C167.128 7.29443 167.536 7.85571 167.539 8.97824V23.5412H180.852V8.71436C180.852 7.76773 181.353 7.29443 182.352 7.29443C183.169 7.29443 183.577 7.85571 183.579 8.97824V25.0399C183.579 25.8005 183.02 26.216 181.904 26.2863H166.051C165.384 26.2863 164.971 25.7822 164.812 24.7739V8.71436C164.812 7.76773 165.313 7.29443 166.314 7.29443Z" fill="white"/>
<path d="M60.1116 8.85136C60.1116 9.67073 59.5543 10.0804 58.4398 10.0804H43.9815V23.4924H58.7032C59.6417 23.4924 60.1112 23.996 60.1116 25.0034C60.1116 25.8261 59.5543 26.2375 58.4398 26.2375H42.4942C41.7367 26.2375 41.3239 25.6762 41.2559 24.5538V8.5853C41.2559 7.91437 41.756 7.49939 42.7563 7.34033H58.7032C59.6417 7.34033 60.1112 7.844 60.1116 8.85136Z" fill="white"/>
<path d="M81.8617 7.29443H65.822C64.8214 7.29443 64.3203 7.76582 64.3203 8.71436V24.7724C64.4782 25.7816 64.891 26.2859 65.5585 26.2848H81.4136C82.5264 26.2126 83.0856 25.799 83.0856 25.0378V8.98113C83.0856 7.8586 82.6787 7.29732 81.8652 7.29732M67.0495 9.93041H80.3613V23.5442H67.046L67.0495 9.93041Z" fill="white"/>
<path d="M188.938 7.29292H189.121C189.809 7.29292 190.778 8.44969 192.033 10.7632C192.418 11.2062 194.929 15.0705 199.566 22.3562H199.654C199.654 22.2415 202.809 17.3698 209.123 7.74116C209.596 7.44138 209.92 7.29099 210.098 7.29003H210.268C210.847 7.29003 211.261 7.73682 211.505 8.62971V8.80249C211.505 9.10326 209.856 11.751 206.553 16.7458C209.856 21.8116 211.505 24.4865 211.505 24.7709V25.037C211.269 25.8669 210.855 26.2835 210.268 26.2835H210.098C209.387 26.2835 208.263 24.8856 206.727 22.0901C205.815 20.809 205.225 19.8899 204.961 19.3327C204.899 19.3327 203.454 21.4987 200.628 25.8308C200.287 26.1309 199.989 26.282 199.733 26.282H199.47C198.856 26.282 197.676 24.7659 195.928 21.7337L194.255 19.3327C191.815 23.3543 190.31 25.6132 189.74 26.1092L189.12 26.282H188.936C188.338 26.282 187.925 25.8354 187.699 24.9422V24.7694C187.699 24.4871 189.349 21.812 192.651 16.7443V16.6519C189.624 12.2229 187.972 9.60597 187.699 8.80105V8.62826C187.952 7.73538 188.366 7.28857 188.936 7.28857" fill="white"/>
<path d="M105.578 23.5101H90.7909V8.97824C90.7909 7.85571 90.3822 7.29443 89.5647 7.29443C88.5663 7.29443 88.0645 7.76798 88.0645 8.71436V24.7702L88.0694 24.7941C88.0694 24.8143 88.0645 24.8302 88.0645 24.8504C88.0645 25.3675 88.2368 25.739 88.567 25.9776C88.6622 26.0765 88.7765 26.1547 88.9029 26.2071C89.0294 26.2596 89.1653 26.2854 89.3021 26.2828H105.31C106.434 26.2828 106.996 25.867 106.996 25.0356C106.996 24.0182 106.522 23.5098 105.573 23.5108" fill="white"/>
<path d="M15.6749 31.2895C24.0592 31.2895 30.8558 24.4442 30.8558 16.0002C30.8558 7.55621 24.0592 0.710938 15.6749 0.710938C7.2908 0.710938 0.494141 7.55621 0.494141 16.0002C0.494141 24.4442 7.2908 31.2895 15.6749 31.2895Z" fill="#020503"/>
<path d="M29.1825 11.0727C27.2268 5.5675 21.9166 1.61719 15.6709 1.61719C9.42513 1.61719 4.11671 5.5675 2.15918 11.0727H29.1825Z" fill="#F5E832"/>
<path d="M17.0393 20.4447C16.5158 19.8179 16.058 19.1384 15.673 18.417C15.288 19.1384 14.8301 19.8179 14.3067 20.4447H2C3.81332 26.1996 9.25156 30.3768 15.6766 30.3768C22.1016 30.3768 27.539 26.2014 29.3541 20.4447H17.0393Z" fill="#F5E832"/>
<path d="M10.2733 13.2055L8.84481 14.6442L7.41718 13.2055C7.29583 13.0908 7.13493 13.0281 6.96851 13.0308C6.80209 13.0335 6.64327 13.1012 6.52554 13.2197C6.40787 13.3383 6.34061 13.4983 6.33797 13.6659C6.33533 13.8335 6.39752 13.9955 6.5114 14.1178L7.93995 15.5556L6.5114 16.9934C6.39752 17.1156 6.33533 17.2776 6.33797 17.4452C6.34061 17.6128 6.40787 17.7728 6.52554 17.8913C6.64327 18.0098 6.80209 18.0776 6.96851 18.0803C7.13493 18.0829 7.29583 18.0203 7.41718 17.9056L8.84481 16.4678L10.2733 17.9056C10.3315 17.9708 10.4022 18.0235 10.4813 18.0602C10.5603 18.0969 10.646 18.117 10.733 18.1193C10.82 18.1216 10.9066 18.1058 10.9874 18.0732C11.0682 18.0407 11.1416 17.9918 11.203 17.9296C11.2644 17.8674 11.3126 17.7934 11.3446 17.7118C11.3765 17.6302 11.3916 17.5429 11.389 17.4553C11.3864 17.3676 11.366 17.2814 11.329 17.2021C11.2922 17.1226 11.2396 17.0516 11.1745 16.9934L9.75144 15.5556L11.1791 14.1178C11.2843 13.9946 11.3396 13.8358 11.3337 13.6735C11.3279 13.511 11.2614 13.3568 11.1476 13.2416C11.0338 13.1264 10.881 13.0586 10.7197 13.052C10.5585 13.0453 10.4006 13.1001 10.2778 13.2055" fill="white"/>
<path d="M21.9216 18.9259C21.2662 18.9255 20.6256 18.7293 20.081 18.3623C19.5362 17.9951 19.1118 17.4736 18.8615 16.8635C18.6112 16.2535 18.5461 15.5824 18.6747 14.935C18.8031 14.2878 19.1194 13.6934 19.5832 13.2272C20.0473 12.7609 20.638 12.4438 21.2811 12.3157C21.924 12.1878 22.5902 12.2548 23.1954 12.5082C23.8006 12.7616 24.3174 13.1901 24.6809 13.7396C25.0441 14.289 25.2375 14.9345 25.2364 15.5946C25.2338 16.4785 24.8835 17.3255 24.2622 17.9498C23.641 18.5742 22.7993 18.9252 21.9216 18.9259ZM21.9216 13.6612C21.5424 13.6617 21.172 13.7754 20.857 13.9879C20.542 14.2005 20.2965 14.5022 20.1518 14.855C20.007 15.2079 19.9693 15.5962 20.0435 15.9707C20.1177 16.345 20.3003 16.689 20.5685 16.959C20.8366 17.2288 21.1781 17.4127 21.5501 17.4873C21.9218 17.5618 22.3073 17.5236 22.6576 17.3777C23.008 17.2316 23.3074 16.9843 23.5183 16.667C23.7291 16.3496 23.8418 15.9764 23.8422 15.5946C23.8425 15.3403 23.7932 15.0886 23.6967 14.8536C23.6003 14.6188 23.459 14.4053 23.2805 14.2254C23.1022 14.0456 22.8904 13.9029 22.6571 13.8057C22.424 13.7083 22.1739 13.6584 21.9216 13.6585" fill="white"/>
</svg>
